<svg xmlns="http://www.w3.org/2000/svg" width="143" height="123" viewBox="0 0 143 123" fill="none"><path d="M128.454 9.15067C129.78 10.4866 130.439 12.0956 130.432 13.9741C130.422 15.9082 129.733 17.534 128.363 18.8513C127.03 20.1259 125.434 20.7595 123.576 20.7502C121.656 20.7409 120.042 20.0776 118.735 18.7603C117.426 17.443 116.776 15.8265 116.785 13.9109C116.795 11.921 117.511 10.2711 118.938 8.9593C120.276 7.73302 121.844 7.12545 123.641 7.13288C125.523 7.14217 127.128 7.81477 128.456 9.15067H128.454ZM123.635 8.29599C122.068 8.28856 120.729 8.84968 119.619 9.97749C118.528 11.0811 117.979 12.3948 117.971 13.9146C117.964 15.492 118.509 16.8335 119.61 17.9409C120.703 19.0483 122.029 19.6057 123.583 19.6131C125.132 19.6205 126.458 19.0724 127.562 17.9688C128.666 16.8595 129.221 15.5255 129.229 13.9666C129.236 12.4524 128.696 11.135 127.609 10.0146C126.508 8.87569 125.185 8.30342 123.635 8.29599ZM122.595 15.0536L122.582 17.7235L120.6 17.7142L120.636 10.167C121.105 10.1689 121.807 10.1744 122.742 10.1819C123.676 10.1893 124.196 10.1967 124.302 10.2023C124.9 10.2488 125.397 10.3807 125.79 10.5981C126.46 10.9715 126.795 11.5735 126.79 12.404C126.786 13.0395 126.607 13.4966 126.251 13.779C125.894 14.0614 125.458 14.2286 124.939 14.2806C125.414 14.381 125.771 14.5277 126.011 14.7191C126.454 15.0777 126.674 15.6425 126.67 16.4136L126.667 17.0881C126.667 17.1624 126.67 17.2367 126.68 17.3092C126.689 17.3835 126.706 17.4578 126.73 17.5321L126.793 17.744L124.905 17.7347C124.844 17.495 124.807 17.1457 124.79 16.6905C124.773 16.2353 124.736 15.9268 124.674 15.7652C124.576 15.4995 124.391 15.3137 124.121 15.2078C123.974 15.1446 123.749 15.1037 123.445 15.0851L123.01 15.0554H122.593L122.595 15.0536ZM123.369 13.6991C123.833 13.7009 124.194 13.6099 124.455 13.4278C124.715 13.2439 124.846 12.9466 124.848 12.5341C124.848 12.1216 124.646 11.8336 124.241 11.672C123.969 11.5661 123.587 11.5122 123.094 11.5103H122.613L122.604 13.6972L123.373 13.7009L123.369 13.6991Z" fill="#4341EC"></path><path d="M76.7992 46.4687L99.6438 15.4251C97.9811 14.3846 96.2587 13.4352 94.4824 12.575L76.7992 46.4687Z" fill="#4341EC"></path><path d="M44.7005 71.89L12.5684 82.6516V88.469L44.7005 71.89Z" fill="#4341EC"></path><path d="M73.7698 45.0325L91.4213 11.2C89.6282 10.4643 87.7905 9.81954 85.908 9.27515L73.7698 45.0325Z" fill="#4341EC"></path><path d="M12.5684 70.6823L42.8274 65.4855L12.5684 66.0001V70.6823Z" fill="#4341EC"></path><path d="M43.5163 68.7593L12.5684 74.075V79.1251L43.5163 68.7593Z" fill="#4341EC"></path><path d="M70.556 44.0756L82.6495 8.45023C80.7894 8.03589 78.8958 7.71632 76.9705 7.49707L70.556 44.0756Z" fill="#4341EC"></path><path d="M113.443 27.7437C112.208 26.1904 110.883 24.7133 109.488 23.3049L82.0276 50.6288L113.443 27.7437Z" fill="#4341EC"></path><path d="M79.5717 48.3509L107.056 21.001C105.582 19.6837 104.044 18.4389 102.433 17.285L79.5717 48.3509Z" fill="#4341EC"></path><path d="M85.7516 56.1712L122.302 43.9288C121.66 42.056 120.93 40.224 120.094 38.4496L85.7498 56.1694L85.7516 56.1712Z" fill="#4341EC"></path><path d="M84.1019 53.2579L118.569 35.4749C117.616 33.7339 116.569 32.0524 115.435 30.4323L84.1019 53.2579Z" fill="#4341EC"></path><path d="M123.285 47.1283L86.9358 59.302L124.531 52.8454C124.218 50.9019 123.799 48.9956 123.285 47.1265V47.1283Z" fill="#4341EC"></path><path d="M59.8943 83.9856L49.0017 116.073H54.2692L59.8943 83.9856Z" fill="#4341EC"></path><path d="M62.9647 85.8752L57.6711 116.073H62.8921L62.9647 85.8752Z" fill="#4341EC"></path><path d="M125.233 61.5372C125.233 59.7238 125.144 57.9326 124.969 56.1638L92.0004 61.8252L125.229 61.6059C125.229 61.5818 125.229 61.5595 125.229 61.5353L125.233 61.5372Z" fill="#4341EC"></path><path d="M67.9641 6.92664L67.2342 43.6241L73.6189 7.21277C73.4253 7.20348 73.2335 7.18304 73.0398 7.17375V6.92664H67.9641Z" fill="#4341EC"></path><path d="M84.6493 65.2178V65.242C74.9558 66.0335 67.2174 73.6922 66.3218 83.3353L66.2418 116.073H73.0398V115.899C100.932 114.724 123.395 92.642 125.116 64.9521L84.6511 65.2178H84.6493Z" fill="#4341EC"></path><path d="M45.6241 62.0927V62.0611C55.042 61.2919 62.6147 54.0419 63.8603 44.7872L64.6126 6.92847H27.3935C19.2063 6.92847 12.5703 13.5504 12.5703 21.7201V62.6556L45.626 62.0945L45.6241 62.0927Z" fill="#4341EC"></path><path d="M56.6805 83.0287L39.4404 116.073H45.4639L56.6805 83.0287Z" fill="#4341EC"></path><path d="M50.8767 79.7159L17.8415 112.59C19.683 114.139 21.9062 115.252 24.3528 115.761L50.8786 79.7178L50.8767 79.7159Z" fill="#4341EC"></path><path d="M48.4263 77.4305L12.7266 103.437C13.0916 105.934 14.0821 108.231 15.5364 110.159L48.4263 77.4305Z" fill="#4341EC"></path><path d="M53.6529 81.5925L28.2779 116.073H35.6625L53.6529 81.5925Z" fill="#4341EC"></path><path d="M46.3484 74.8052L12.5684 92.2351V99.4126L46.3484 74.8052Z" fill="#4341EC"></path></svg>