<svg xmlns="http://www.w3.org/2000/svg" width="602" height="354" viewBox="0 0 602 354" fill="none"><path d="M444.859 63.2922L447.888 63.3083L447.845 72.5272C448.568 71.6235 449.215 70.9872 449.788 70.6182C450.767 69.9819 451.987 69.6717 453.443 69.677C456.054 69.6877 457.825 70.6128 458.746 72.4417C459.243 73.4416 459.495 74.8266 459.484 76.5966L459.43 88.1524L456.316 88.1364L456.37 76.7838C456.375 75.463 456.214 74.4897 455.877 73.8748C455.332 72.8855 454.304 72.3882 452.79 72.3775C451.532 72.3722 450.392 72.8 449.365 73.6555C448.338 74.5165 447.824 76.1421 447.813 78.5431L447.765 88.0936L444.736 88.0776L444.854 63.2869L444.859 63.2922Z" fill="#B2B2B2"></path><path d="M472.3 70.6931C473.488 71.2974 474.398 72.0781 475.013 73.0353C475.612 73.9443 476.008 75.0085 476.201 76.217C476.377 77.0458 476.458 78.372 476.452 80.1848L463.342 80.126C463.39 81.9601 463.813 83.4307 464.61 84.5429C465.408 85.6552 466.644 86.2113 468.324 86.222C469.892 86.2274 471.149 85.714 472.086 84.6713C472.61 84.067 472.985 83.3612 473.21 82.5644L476.19 82.5804C476.11 83.2435 475.842 83.9761 475.398 84.7889C474.954 85.6017 474.456 86.2595 473.905 86.7728C472.99 87.6658 471.856 88.2648 470.507 88.5749C469.785 88.7514 468.966 88.8369 468.051 88.8316C465.82 88.8209 463.936 87.9974 462.395 86.3611C460.854 84.7248 460.089 82.4361 460.105 79.5003C460.115 76.6074 460.907 74.2598 462.481 72.4631C464.049 70.6664 466.093 69.7733 468.613 69.784C469.887 69.7894 471.117 70.0942 472.305 70.6984L472.3 70.6931ZM473.354 77.7677C473.236 76.4523 472.958 75.4042 472.519 74.6181C471.701 73.1583 470.331 72.4203 468.41 72.415C467.029 72.4096 465.873 72.9069 464.931 73.9016C463.99 74.8962 463.492 76.1742 463.428 77.7196L473.359 77.7677H473.354Z" fill="#B2B2B2"></path><path d="M487.138 77.3774C487.834 77.2918 488.305 77.0031 488.54 76.5111C488.674 76.2437 488.744 75.8534 488.749 75.3454C488.754 74.308 488.391 73.5593 487.663 73.0888C486.935 72.6182 485.881 72.3829 484.516 72.3722C482.938 72.3669 481.814 72.7893 481.151 73.6396C480.781 74.1101 480.535 74.816 480.417 75.7518L477.592 75.7411C477.662 73.5166 478.384 71.9711 479.775 71.1049C481.161 70.2386 482.772 69.8108 484.597 69.8215C486.716 69.8322 488.433 70.2439 489.75 71.0567C491.055 71.8695 491.708 73.1262 491.698 74.832L491.649 85.206C491.649 85.5215 491.714 85.7729 491.842 85.9654C491.971 86.1579 492.243 86.2541 492.655 86.2541C492.789 86.2541 492.939 86.2488 493.11 86.2327C493.276 86.2167 493.458 86.1953 493.651 86.1579L493.64 88.3931C493.169 88.5268 492.811 88.607 492.564 88.6444C492.318 88.6819 491.981 88.6926 491.553 88.6872C490.51 88.6872 489.755 88.3076 489.284 87.5696C489.038 87.1739 488.867 86.6231 488.771 85.9012C488.15 86.7087 487.262 87.4038 486.1 87.9921C484.939 88.5803 483.666 88.869 482.274 88.8637C480.605 88.8583 479.24 88.345 478.181 87.3236C477.127 86.3076 476.602 85.0349 476.607 83.5109C476.613 81.8425 477.143 80.5538 478.191 79.6394C479.24 78.725 480.61 78.1635 482.306 77.9603L487.138 77.3774ZM480.722 85.5269C481.359 86.0349 482.114 86.2862 482.991 86.2916C484.056 86.2916 485.089 86.0563 486.09 85.5697C487.775 84.7569 488.626 83.4253 488.631 81.5698L488.642 79.1367C488.273 79.372 487.797 79.5645 487.213 79.7196C486.63 79.8747 486.058 79.9869 485.501 80.0511L483.671 80.2757C482.574 80.4147 481.745 80.6393 481.193 80.9548C480.257 81.4735 479.781 82.3131 479.775 83.4681C479.775 84.3398 480.086 85.0296 480.722 85.5376V85.5269Z" fill="#B2B2B2"></path><path d="M493.972 63.6023L497 63.6183L496.883 88.3235L493.854 88.3074L493.972 63.6023Z" fill="#B2B2B2"></path><path d="M499.312 65.2922L502.373 65.3083L502.351 70.3349L505.23 70.3456L505.22 72.8161L502.341 72.8054L502.287 84.559C502.287 85.1847 502.496 85.6071 502.919 85.821C503.154 85.944 503.545 86.0082 504.096 86.0135C504.24 86.0135 504.396 86.0135 504.567 86.0028C504.733 85.9975 504.931 85.9814 505.155 85.9494L505.145 88.3557C504.797 88.452 504.433 88.5268 504.058 88.5696C503.684 88.6124 503.277 88.6338 502.838 88.6338C501.426 88.6284 500.468 88.2595 499.965 87.5376C499.462 86.8103 499.216 85.8692 499.221 84.7141L499.275 72.7893L496.834 72.7786L496.845 70.3081L499.285 70.3188L499.307 65.2922H499.312Z" fill="#B2B2B2"></path><path d="M505.466 63.5757L508.495 63.5917L508.452 72.8107C509.174 71.907 509.822 71.2706 510.394 70.9016C511.373 70.2653 512.594 69.9551 514.049 69.9605C516.66 69.9712 518.432 70.8963 519.352 72.7251C519.85 73.7251 520.101 75.1101 520.09 76.8801L520.037 88.4359L516.923 88.4198L516.976 77.0672C516.981 75.7464 516.821 74.7732 516.484 74.1582C515.938 73.169 514.911 72.6716 513.396 72.661C512.139 72.6556 510.999 73.0834 509.971 73.939C508.944 74.7999 508.43 76.4255 508.42 78.8265L508.372 88.3771L505.343 88.361L505.461 63.5703L505.466 63.5757Z" fill="#B2B2B2"></path><path d="M447.449 97.5959C447.101 96.7778 446.925 95.9864 446.93 95.2217C446.935 93.6281 447.481 92.3127 448.562 91.2699C449.638 90.2272 451.077 89.7085 452.881 89.7192C454.593 89.7245 455.925 90.2218 456.883 91.2004C457.841 92.179 458.317 93.3501 458.312 94.703C458.307 96.2805 457.798 97.6654 456.803 98.8472C456.22 99.537 455.246 100.334 453.876 101.238L458.339 106.644C458.638 105.745 458.847 105.082 458.97 104.638C459.088 104.195 459.211 103.58 459.334 102.783L462.213 102.794C462.015 104.371 461.63 105.89 461.052 107.339C460.474 108.788 460.19 109.371 460.19 109.093L464.546 114.446L460.65 114.43L458.349 111.596C457.429 112.59 456.589 113.312 455.824 113.772C454.491 114.574 452.955 114.97 451.222 114.959C448.664 114.948 446.807 114.248 445.651 112.857C444.495 111.467 443.917 109.906 443.928 108.168C443.939 106.296 444.511 104.735 445.646 103.483C446.341 102.724 447.636 101.778 449.531 100.644C448.493 99.4408 447.802 98.4248 447.449 97.6066V97.5959ZM454.662 111.456C455.556 110.89 456.246 110.253 456.733 109.547L451.195 102.708C449.616 103.756 448.589 104.558 448.107 105.114C447.364 105.949 446.994 106.975 446.989 108.189C446.984 109.499 447.455 110.51 448.407 111.221C449.354 111.932 450.376 112.291 451.457 112.296C452.699 112.301 453.763 112.018 454.662 111.451V111.456ZM454.491 97.4515C455.149 96.6922 455.481 95.8527 455.481 94.9222C455.481 94.195 455.251 93.5693 454.769 93.0399C454.293 92.5105 453.646 92.2485 452.832 92.2431C451.596 92.2378 450.735 92.6496 450.248 93.4731C450.002 93.8955 449.873 94.3607 449.873 94.8634C449.873 95.5479 450.055 96.2002 450.43 96.8312C450.804 97.4569 451.425 98.275 452.297 99.275C453.357 98.5317 454.079 97.9221 454.486 97.4569L454.491 97.4515Z" fill="#B2B2B2"></path><path d="M472.246 91.4412L475.307 91.4572L475.286 96.4838L478.164 96.4945L478.154 98.965L475.275 98.9543L475.221 110.708C475.221 111.334 475.43 111.756 475.858 111.97C476.094 112.093 476.484 112.157 477.035 112.162C477.18 112.162 477.335 112.162 477.506 112.152C477.672 112.146 477.87 112.13 478.095 112.098L478.084 114.505C477.736 114.601 477.373 114.676 476.998 114.719C476.623 114.761 476.217 114.783 475.778 114.783C474.365 114.777 473.407 114.408 472.904 113.686C472.401 112.959 472.155 112.018 472.161 110.863L472.214 98.9383L469.774 98.9276L469.785 96.4571L472.225 96.4677L472.246 91.4412Z" fill="#B2B2B2"></path><path d="M478.448 96.4997L481.327 96.5157L481.311 99.6279C481.552 99.0236 482.13 98.2911 483.055 97.4248C483.981 96.5585 485.041 96.1307 486.245 96.136C486.298 96.136 486.395 96.1414 486.528 96.1521C486.662 96.1628 486.892 96.1895 487.219 96.2216L487.203 99.4194C487.026 99.3873 486.86 99.3605 486.705 99.3498C486.555 99.3391 486.389 99.3285 486.207 99.3285C484.682 99.3231 483.505 99.8044 482.681 100.783C481.857 101.762 481.439 102.89 481.434 104.168L481.386 114.526L478.357 114.51L478.443 96.4997H478.448Z" fill="#B2B2B2"></path><path d="M496.642 103.697C497.338 103.612 497.808 103.323 498.044 102.831C498.178 102.558 498.247 102.173 498.253 101.665C498.253 100.628 497.894 99.8794 497.166 99.4088C496.439 98.9382 495.384 98.6976 494.02 98.6923C492.441 98.6869 491.318 99.1094 490.654 99.9596C490.285 100.43 490.039 101.136 489.921 102.072L487.095 102.056C487.165 99.8313 487.887 98.2858 489.279 97.4196C490.665 96.5533 492.275 96.1255 494.1 96.1362C496.219 96.1469 497.937 96.5586 499.253 97.3714C500.559 98.1842 501.212 99.4409 501.201 101.147L501.153 111.521C501.153 111.836 501.217 112.088 501.346 112.28C501.474 112.473 501.747 112.569 502.159 112.569C502.293 112.569 502.442 112.563 502.614 112.547C502.785 112.531 502.962 112.505 503.154 112.473L503.143 114.708C502.673 114.841 502.314 114.922 502.068 114.954C501.822 114.986 501.485 115.002 501.057 115.002C500.013 114.997 499.259 114.622 498.788 113.879C498.542 113.483 498.37 112.932 498.274 112.211C497.653 113.013 496.765 113.713 495.604 114.301C494.443 114.89 493.169 115.178 491.778 115.173C490.108 115.168 488.744 114.654 487.684 113.633C486.63 112.617 486.106 111.344 486.111 109.82C486.116 108.152 486.646 106.863 487.695 105.949C488.744 105.034 490.114 104.478 491.81 104.27L496.642 103.687V103.697ZM490.226 111.842C490.863 112.35 491.617 112.601 492.495 112.606C493.56 112.612 494.592 112.371 495.593 111.884C497.279 111.077 498.129 109.74 498.135 107.884L498.146 105.451C497.776 105.687 497.3 105.879 496.717 106.034C496.134 106.189 495.561 106.302 495.004 106.366L493.174 106.59C492.077 106.729 491.248 106.954 490.697 107.27C489.755 107.788 489.284 108.628 489.279 109.783C489.279 110.654 489.589 111.344 490.226 111.852V111.842Z" fill="#B2B2B2"></path><path d="M503.358 96.6976L506.44 96.7136L506.354 114.644L503.272 114.627L503.358 96.6976ZM503.39 89.9224L506.472 89.9384L506.456 93.3715L503.374 93.3554L503.39 89.9224Z" fill="#B2B2B2"></path><path d="M508.19 96.6389L511.069 96.6549L511.058 99.211C511.914 98.1629 512.824 97.4089 513.782 96.9544C514.739 96.4999 515.799 96.2753 516.966 96.2806C519.523 96.2913 521.246 97.1897 522.135 98.9757C522.622 99.9543 522.862 101.35 522.857 103.168L522.804 114.724L519.721 114.708L519.775 103.355C519.78 102.254 519.62 101.371 519.299 100.698C518.763 99.5746 517.795 99.0078 516.377 99.0025C515.66 99.0025 515.066 99.072 514.611 99.211C513.782 99.4516 513.048 99.9436 512.417 100.682C511.909 101.275 511.577 101.885 511.427 102.516C511.272 103.152 511.192 104.056 511.186 105.232L511.143 114.665L508.115 114.649L508.2 96.6389H508.19Z" fill="#B2B2B2"></path><path d="M524.532 96.7991L527.614 96.8151L527.529 114.745L524.446 114.729L524.532 96.7991ZM524.564 90.0186L527.646 90.0346L527.63 93.4676L524.548 93.4516L524.564 90.0186Z" fill="#B2B2B2"></path><path d="M529.364 96.7351L532.243 96.7511L532.232 99.3072C533.088 98.2591 533.998 97.5051 534.956 97.0506C535.914 96.5961 536.973 96.3715 538.14 96.3768C540.698 96.3875 542.421 97.2859 543.309 99.0719C543.796 100.05 544.037 101.446 544.031 103.264L543.978 114.82L540.896 114.804L540.949 103.451C540.954 102.35 540.794 101.468 540.473 100.794C539.938 99.6708 538.969 99.104 537.551 99.0987C536.834 99.0987 536.24 99.1682 535.785 99.3072C534.956 99.5478 534.223 100.04 533.591 100.778C533.083 101.371 532.751 101.981 532.601 102.612C532.446 103.248 532.366 104.152 532.361 105.328L532.318 114.761L529.289 114.745L529.375 96.7351H529.364Z" fill="#B2B2B2"></path><path d="M555.724 97.5799C556.291 97.9756 556.869 98.5478 557.457 99.3018L557.468 97.0291L560.261 97.0398L560.186 113.419C560.176 115.708 559.833 117.51 559.154 118.831C557.891 121.269 555.52 122.483 552.042 122.467C550.11 122.456 548.484 122.018 547.167 121.141C545.851 120.264 545.118 118.9 544.973 117.05L548.05 117.066C548.189 117.873 548.478 118.499 548.912 118.938C549.591 119.611 550.661 119.954 552.122 119.964C554.434 119.975 555.948 119.162 556.671 117.531C557.099 116.569 557.302 114.847 557.281 112.371C556.671 113.285 555.943 113.97 555.092 114.414C554.241 114.857 553.118 115.077 551.721 115.071C549.773 115.061 548.077 114.36 546.627 112.97C545.177 111.579 544.454 109.285 544.47 106.088C544.486 103.072 545.23 100.719 546.707 99.0344C548.184 97.3499 549.96 96.5104 552.042 96.5211C553.449 96.5264 554.68 96.8794 555.724 97.5799ZM556.077 100.831C555.167 99.7509 554.001 99.2055 552.583 99.2002C550.463 99.1895 549.008 100.184 548.216 102.173C547.799 103.237 547.585 104.633 547.579 106.355C547.569 108.387 547.97 109.932 548.789 110.991C549.602 112.055 550.704 112.59 552.09 112.595C554.257 112.606 555.783 111.633 556.676 109.67C557.174 108.564 557.425 107.269 557.431 105.788C557.441 103.558 556.992 101.901 556.082 100.82L556.077 100.831Z" fill="#B2B2B2"></path><path d="M269 68.891C271.585 71.4952 272.864 74.6341 272.848 78.2971C272.832 82.067 271.489 85.2381 268.818 87.8102C266.223 90.2967 263.114 91.532 259.497 91.516C255.756 91.4999 252.615 90.2058 250.068 87.6337C247.521 85.0616 246.253 81.912 246.274 78.1741C246.29 74.2972 247.687 71.0781 250.464 68.522C253.07 66.1317 256.126 64.9446 259.62 64.9606C263.285 64.9767 266.41 66.2921 268.995 68.8963L269 68.891ZM259.615 67.2226C256.564 67.2065 253.953 68.3028 251.791 70.5005C249.667 72.6502 248.597 75.2116 248.581 78.1795C248.564 81.2542 249.629 83.8691 251.77 86.0295C253.9 88.1899 256.479 89.2754 259.507 89.2914C262.526 89.3075 265.105 88.238 267.256 86.083C269.407 83.9173 270.488 81.3184 270.504 78.2811C270.52 75.3293 269.466 72.7572 267.347 70.5754C265.206 68.3562 262.627 67.2386 259.609 67.2226H259.615ZM257.586 80.404L257.565 85.6124L253.707 85.5964L253.776 70.8802C254.691 70.8802 256.056 70.8963 257.875 70.907C259.695 70.923 260.706 70.9337 260.915 70.9497C262.081 71.0406 263.045 71.2973 263.815 71.7198C265.121 72.447 265.774 73.6235 265.763 75.2437C265.758 76.479 265.41 77.372 264.714 77.9228C264.018 78.4736 263.168 78.7998 262.156 78.9014C263.082 79.0992 263.778 79.3826 264.243 79.7569C265.105 80.4575 265.533 81.559 265.527 83.0617V84.3771C265.522 84.5215 265.527 84.6659 265.544 84.8103C265.56 84.9547 265.592 85.099 265.64 85.2434L265.763 85.6552L262.087 85.6391C261.969 85.1686 261.894 84.4894 261.862 83.6018C261.83 82.7141 261.755 82.1098 261.637 81.7997C261.445 81.281 261.086 80.9227 260.562 80.7141C260.273 80.5912 259.834 80.5109 259.245 80.4735L258.4 80.4147H257.586V80.404ZM259.095 77.7624C259.994 77.7624 260.701 77.5912 261.209 77.233C261.718 76.8747 261.969 76.2918 261.974 75.4897C261.974 74.6876 261.584 74.1261 260.792 73.8106C260.262 73.6021 259.518 73.5005 258.555 73.4951H257.619L257.597 77.7624H259.095Z" fill="white"></path><path d="M344.365 205.427L317.433 205.299L308.572 139.172H306.833L306.522 205.245L292.524 205.181L292.84 137.654L321.222 137.787L329.987 203.914L331.822 203.924L341.208 137.884L369.591 138.017L369.275 205.545L355.276 205.48L355.587 139.397L353.848 139.386L344.371 205.427H344.365Z" fill="#B2B2B2"></path><path d="M377.344 171.813C377.398 160.043 380.287 151.247 386.013 145.423C391.739 139.6 399.91 136.707 410.526 136.76C421.143 136.809 429.287 139.776 434.96 145.653C440.626 151.535 443.436 160.359 443.377 172.123C443.323 183.893 440.434 192.689 434.708 198.518C428.988 204.341 420.811 207.229 410.195 207.181C399.573 207.133 391.434 204.17 385.761 198.288C380.095 192.411 377.285 183.583 377.344 171.813ZM391.241 171.877C391.204 179.663 392.82 185.438 396.084 189.219C399.348 192.994 404.068 194.903 410.248 194.93C416.429 194.957 421.164 193.101 424.466 189.352C427.768 185.604 429.432 179.839 429.469 172.059C429.507 164.278 427.891 158.498 424.627 154.723C421.362 150.942 416.643 149.044 410.462 149.011C404.282 148.985 399.546 150.84 396.244 154.589C392.943 158.337 391.278 164.102 391.241 171.882V171.877Z" fill="#B2B2B2"></path><path d="M444.207 138.365L458.976 138.434L474.884 204.593L476.816 204.603L493.249 138.6L507.922 138.67L490.617 206.117L460.977 205.978L444.207 138.37V138.365Z" fill="#B2B2B2"></path><path d="M513.685 206.218L514.001 138.691L560.144 138.905L560.085 150.963L527.652 150.814L527.577 166.439L557.115 166.578L557.056 178.732L527.518 178.593L527.443 194.224L559.876 194.374L559.817 206.432L513.675 206.218H513.685Z" fill="#B2B2B2"></path><path d="M343.803 279.35L316.871 279.221L308.01 213.095L306.271 213.084L305.96 279.168L291.962 279.104L292.278 211.576L320.66 211.71L329.425 277.836L331.26 277.847L340.646 211.806L369.029 211.94L368.713 279.467L354.714 279.403L355.025 213.32H353.286L343.803 279.35Z" fill="#B2B2B2"></path><path d="M379.137 279.516L379.453 211.988L425.595 212.202L425.536 224.261L393.098 224.111L393.023 239.741L422.561 239.88L422.502 252.035L392.964 251.896L392.889 267.527L425.328 267.676L425.269 279.735L379.126 279.521L379.137 279.516Z" fill="#B2B2B2"></path><path d="M466.596 279.922L450.301 213.764L448.37 213.753L448.059 279.836L434.061 279.772L434.377 212.245L463.048 212.379L479.342 278.537L481.274 278.548L481.584 212.464L495.583 212.528L495.267 280.056L466.596 279.922Z" fill="#B2B2B2"></path><path d="M523.745 280.189L524.002 224.913L502.475 224.812L502.533 212.561L559.587 212.828L559.528 225.079L538.001 224.977L537.744 280.254L523.745 280.189Z" fill="#B2B2B2"></path><path d="M293.519 131.648L293.835 64.1211L318.739 64.2387C324.593 64.2655 329.596 64.966 333.738 66.3349C337.885 67.7039 341.283 69.7787 343.943 72.5593C346.602 75.34 348.544 78.8533 349.781 83.1045C351.017 87.3557 351.621 92.3716 351.595 98.1628C351.568 103.949 350.915 108.965 349.642 113.205C348.368 117.446 346.388 120.943 343.707 123.691C341.021 126.445 337.601 128.488 333.444 129.82C329.286 131.151 324.277 131.804 318.423 131.777L293.519 131.659V131.648ZM318.68 76.4844L307.769 76.4309L307.566 119.456L318.477 119.51C321.949 119.526 324.914 119.119 327.365 118.296C329.816 117.472 331.785 116.194 333.272 114.467C334.76 112.74 335.852 110.494 336.537 107.729C337.227 104.97 337.58 101.655 337.596 97.7992C337.612 93.9384 337.291 90.6604 336.628 87.9546C335.964 85.2488 334.894 83.0617 333.422 81.3773C331.951 79.6982 329.992 78.4683 327.552 77.6875C325.107 76.9015 322.153 76.5057 318.675 76.4897L318.68 76.4844Z" fill="white"></path><path d="M359.354 131.953L359.67 64.4258L405.812 64.6397L405.753 76.6981L373.315 76.5484L373.24 92.179L402.778 92.318L402.719 104.473L373.181 104.334L373.106 119.964L405.545 120.114L405.486 132.172L359.343 131.958L359.354 131.953Z" fill="white"></path><path d="M168.416 141.664L212.899 81.1312C209.662 79.1045 206.307 77.2489 202.85 75.5698L168.416 141.664Z" fill="white"></path><path d="M105.909 191.235L43.344 212.218V223.565L105.909 191.235Z" fill="white"></path><path d="M162.519 138.857L196.889 72.8855C193.4 71.4524 189.82 70.1957 186.154 69.1316L162.519 138.857Z" fill="white"></path><path d="M43.344 188.877L102.265 178.743L43.344 179.748V188.877Z" fill="white"></path><path d="M103.603 185.128L43.344 195.491V205.341L103.603 185.128Z" fill="white"></path><path d="M156.258 136.996L179.808 67.5274C176.185 66.7199 172.498 66.0996 168.747 65.6665L156.258 136.996Z" fill="white"></path><path d="M239.767 105.147C237.365 102.12 234.78 99.2376 232.067 96.489L178.599 149.771L239.773 105.147H239.767Z" fill="white"></path><path d="M173.815 145.333L227.337 91.9972C224.468 89.4305 221.472 86.9974 218.331 84.7515L173.815 145.327V145.333Z" fill="white"></path><path d="M185.844 160.583L257.014 136.712C255.767 133.06 254.338 129.488 252.717 126.028L185.844 160.583Z" fill="white"></path><path d="M182.633 154.899L249.747 120.221C247.89 116.825 245.851 113.547 243.647 110.387L182.633 154.899Z" fill="white"></path><path d="M258.93 142.948L188.15 166.69L261.354 154.102C260.744 150.311 259.93 146.594 258.93 142.953V142.948Z" fill="white"></path><path d="M135.501 214.822L114.289 277.393H124.542L135.501 214.822Z" fill="white"></path><path d="M141.478 218.507L131.167 277.393H141.334L141.478 218.507Z" fill="white"></path><path d="M262.723 171.043C262.723 167.508 262.547 164.011 262.21 160.567L198.018 171.61L262.723 171.182C262.723 171.134 262.723 171.091 262.723 171.043Z" fill="white"></path><path d="M151.206 64.5542L149.783 136.114L162.214 65.1103C161.834 65.0889 161.464 65.0515 161.085 65.0355V64.5542H151.201H151.206Z" fill="white"></path><path d="M183.704 178.225V178.273C164.83 179.818 149.761 194.748 148.017 213.555L147.862 277.393H161.095V277.05C215.409 274.762 259.149 231.699 262.499 177.706L183.704 178.225Z" fill="white"></path><path d="M107.707 172.128V172.064C126.045 170.567 140.793 156.428 143.217 138.381L144.683 64.5542H72.2079C56.2669 64.5542 43.344 77.4682 43.344 93.3982V173.225L107.707 172.128Z" fill="white"></path><path d="M129.24 212.956L95.6726 277.393H107.397L129.24 212.956Z" fill="white"></path><path d="M117.938 206.491L53.6128 270.596C57.198 273.617 61.5271 275.788 66.2896 276.778L117.938 206.491Z" fill="white"></path><path d="M113.165 202.037L43.6543 252.746C44.366 257.618 46.2924 262.094 49.1231 265.853L113.165 202.031V202.037Z" fill="white"></path><path d="M123.343 210.154L73.9363 277.393H88.3147L123.343 210.154Z" fill="white"></path><path d="M109.12 196.919L43.344 230.907V244.902L109.12 196.919Z" fill="white"></path></svg>