<svg xmlns="http://www.w3.org/2000/svg" width="331.445" height="139.12801" viewBox="0 0 331.445 139.12801"><defs><style>      .cls-1 {        fill: #1d1d1b;      }      .cls-2 {        fill: #4341ec;      }    </style></defs><title>Recurso 1</title><g id="Capa_2" data-name="Capa 2"><g id="Capa_1-2" data-name="Capa 1"><path class="cls-1" d="M257.45.0035l1.942.0102-.027,5.9117a5.6659,5.6659,0,0,1,1.245-1.2242,4.18779,4.18779,0,0,1,2.344-.6035,3.46248,3.46248,0,0,1,3.4,1.7728,5.986,5.986,0,0,1,.473,2.6643l-.034,7.4101-1.997-.0103.034-7.2798a4.03111,4.03111,0,0,0-.315-1.8653,2.073,2.073,0,0,0-1.98-.9602,3.32624,3.32624,0,0,0-2.196.8196c-.659.552-.988,1.5945-.995,3.1341l-.031,6.1242-1.942-.0103L257.447,0Z"></path><path class="cls-1" d="M275.045,4.7495a4.35016,4.35016,0,0,1,1.739,1.5019,5.127,5.127,0,0,1,.762,2.0403,13.40346,13.40346,0,0,1,.161,2.5443l-8.406-.0377a4.9938,4.9938,0,0,0,.813,2.8323,2.7507,2.7507,0,0,0,2.381,1.0768,3.06589,3.06589,0,0,0,2.412-.9945,3.46487,3.46487,0,0,0,.721-1.351l1.911.0103a4.02379,4.02379,0,0,1-.508,1.4162,4.96921,4.96921,0,0,1-.957,1.2721,4.48812,4.48812,0,0,1-2.179,1.1556,6.49346,6.49346,0,0,1-1.575.1646,4.82221,4.82221,0,0,1-3.626-1.5842,6.11852,6.11852,0,0,1-1.469-4.3994,6.64244,6.64244,0,0,1,1.524-4.5126,4.94066,4.94066,0,0,1,3.932-1.7179,5.20926,5.20926,0,0,1,2.367.5864Zm.676,4.5366a5.09092,5.09092,0,0,0-.536-2.0197,2.78955,2.78955,0,0,0-2.635-1.4127,2.93145,2.93145,0,0,0-2.23.9532,3.65142,3.65142,0,0,0-.964,2.4483l6.368.0309Z"></path><path class="cls-1" d="M284.559,9.0358a1.0533,1.0533,0,0,0,.899-.5555,1.76951,1.76951,0,0,0,.134-.7476,1.58441,1.58441,0,0,0-.697-1.447,3.78791,3.78791,0,0,0-2.017-.4595,2.56641,2.56641,0,0,0-2.158.8127,2.74059,2.74059,0,0,0-.47,1.3544l-1.812-.0068a3.35181,3.35181,0,0,1,1.4-2.973,5.64937,5.64937,0,0,1,3.091-.8229,6.2775,6.2775,0,0,1,3.304.7921,2.62819,2.62819,0,0,1,1.249,2.4209l-.03,6.6522a.8634.8634,0,0,0,.123.4869.593.593,0,0,0,.522.1852c.085,0,.181-.0034.291-.0137.107-.0103.223-.024.347-.048l-.007,1.4333a5.96656,5.96656,0,0,1-.69.1612,4.27391,4.27391,0,0,1-.648.0274,1.60076,1.60076,0,0,1-1.455-.7167,2.70212,2.70212,0,0,1-.329-1.0698,4.9008,4.9008,0,0,1-1.713,1.3407,5.297,5.297,0,0,1-2.453.559,3.64537,3.64537,0,0,1-2.625-.9876,3.23729,3.23729,0,0,1-1.008-2.4449,3.1315,3.1315,0,0,1,1.015-2.4826,4.77154,4.77154,0,0,1,2.639-1.0767Zm-4.114,5.2258a2.27959,2.27959,0,0,0,1.455.4903,4.48864,4.48864,0,0,0,1.987-.4629,2.66539,2.66539,0,0,0,1.629-2.5649l.007-1.5602a3.28078,3.28078,0,0,1-.916.3738,7.74188,7.74188,0,0,1-1.098.2126l-1.173.144a4.43791,4.43791,0,0,0-1.589.4355,1.71813,1.71813,0,0,0-.909,1.6116,1.60369,1.60369,0,0,0,.607,1.327Z"></path><path class="cls-1" d="M288.941.2027l1.942.0103-.076,15.8419-1.942-.0102Z"></path><path class="cls-1" d="M292.365,1.2862l1.963.0103-.014,3.2232,1.846.0069-.007,1.5842-1.846-.0069-.034,7.537a.81735.81735,0,0,0,.405.8092,1.77769,1.77769,0,0,0,.754.1235c.093,0,.193,0,.302-.0069a3.46523,3.46523,0,0,0,.378-.0343l-.007,1.5431a4.53617,4.53617,0,0,1-.697.1371,6.92051,6.92051,0,0,1-.782.0412,2.11423,2.11423,0,0,1-1.842-.703,3.08328,3.08328,0,0,1-.477-1.8105l.034-7.6467-1.565-.0068.007-1.5842,1.565.0068.014-3.2232Z"></path><path class="cls-1" d="M296.311.1856l1.942.0103-.028,5.9116a5.691,5.691,0,0,1,1.246-1.2242,4.1874,4.1874,0,0,1,2.343-.6035,3.46419,3.46419,0,0,1,3.401,1.7728,5.98685,5.98685,0,0,1,.473,2.6644l-.034,7.41-1.997-.0103.034-7.2797a4.03131,4.03131,0,0,0-.315-1.8654,2.07272,2.07272,0,0,0-1.98-.9601,3.32429,3.32429,0,0,0-2.196.8195c-.659.5521-.988,1.5945-.995,3.1341l-.031,6.1242-1.942-.0103L296.307.1822Z"></path><path class="cls-1" d="M259.111,22.0008a3.82683,3.82683,0,0,1-.333-1.5225,3.38633,3.38633,0,0,1,1.046-2.534,3.77661,3.77661,0,0,1,2.769-.9945,3.44392,3.44392,0,0,1,2.567.9499,3.0867,3.0867,0,0,1,.916,2.246,4.02439,4.02439,0,0,1-.968,2.6575,9.0401,9.0401,0,0,1-1.876,1.5327l2.861,3.4667c.192-.576.326-1.0012.405-1.2858.075-.2846.154-.679.233-1.1899l1.846.0069a11.83912,11.83912,0,0,1-.744,2.9146c-.371.9293-.553,1.303-.553,1.1247l2.793,3.4325-2.498-.0103L266.1,30.9779a7.76015,7.76015,0,0,1-1.62,1.3956,5.54089,5.54089,0,0,1-2.95.7612,4.41589,4.41589,0,0,1-3.572-1.3476,4.53777,4.53777,0,0,1-1.105-3.0072,4.34221,4.34221,0,0,1,1.102-3.0038,11.851,11.851,0,0,1,2.49-1.8208,8.2112,8.2112,0,0,1-1.334-1.9477Zm4.625,8.8879a4.5163,4.5163,0,0,0,1.328-1.2241l-3.551-4.3857a10.88771,10.88771,0,0,0-1.98,1.543,2.873,2.873,0,0,0-.717,1.9717,2.26664,2.26664,0,0,0,.909,1.9443,3.23121,3.23121,0,0,0,1.956.6892,3.73757,3.73757,0,0,0,2.055-.5418Zm-.11-8.9805a2.41586,2.41586,0,0,0,.635-1.6219,1.72877,1.72877,0,0,0-.456-1.207,1.60375,1.60375,0,0,0-1.243-.511,1.66678,1.66678,0,0,0-1.897,1.6802,2.43,2.43,0,0,0,.357,1.2619,11.7919,11.7919,0,0,0,1.197,1.5671,8.26419,8.26419,0,0,0,1.404-1.1659Z"></path><path class="cls-1" d="M275.01,18.0537l1.963.0103-.014,3.2233,1.846.0068-.007,1.5843-1.846-.0069-.034,7.5369a.81595.81595,0,0,0,.408.8093,1.78162,1.78162,0,0,0,.755.1234c.093,0,.192,0,.302-.0068a3.49112,3.49112,0,0,0,.378-.0343l-.007,1.543a4.54817,4.54817,0,0,1-.697.1372,6.92134,6.92134,0,0,1-.782.0411,2.11724,2.11724,0,0,1-1.843-.7029,3.09076,3.09076,0,0,1-.476-1.8105l.034-7.6467-1.565-.0069.007-1.5842,1.565.0069Z"></path><path class="cls-1" d="M278.987,21.2977l1.846.0103-.01,1.9957a4.42871,4.42871,0,0,1,1.118-1.4128,2.88174,2.88174,0,0,1,2.045-.8264c.034,0,.096.0034.182.0103s.233.024.443.0446l-.011,2.0505a2.93784,2.93784,0,0,0-.319-.0446c-.096-.0068-.202-.0137-.319-.0137a2.77631,2.77631,0,0,0-2.261.9327,3.29466,3.29466,0,0,0-.799,2.1706l-.031,6.642-1.942-.0103.055-11.5489Z"></path><path class="cls-1" d="M290.653,25.9132a1.0529,1.0529,0,0,0,.899-.5555,1.78034,1.78034,0,0,0,.134-.7475,1.59057,1.59057,0,0,0-.697-1.447,3.758,3.758,0,0,0-2.017-.4595,2.56819,2.56819,0,0,0-2.159.8126,2.76045,2.76045,0,0,0-.47,1.3545l-1.811-.0103a3.34952,3.34952,0,0,1,1.4-2.9729,5.64794,5.64794,0,0,1,3.091-.823,6.27843,6.27843,0,0,1,3.304.7921,2.63026,2.63026,0,0,1,1.249,2.4209l-.031,6.6523a.85555.85555,0,0,0,.124.4869.59232.59232,0,0,0,.521.1851c.086,0,.182-.0034.292-.0137s.223-.0274.347-.048l-.007,1.4333a5.17259,5.17259,0,0,1-.69.1578,5.31621,5.31621,0,0,1-.649.0308,1.60107,1.60107,0,0,1-1.454-.7201,2.7169,2.7169,0,0,1-.33-1.0698,4.93685,4.93685,0,0,1-1.712,1.3407,5.297,5.297,0,0,1-2.453.559,3.64421,3.64421,0,0,1-2.625-.9876,3.24177,3.24177,0,0,1-1.009-2.4449,3.13553,3.13553,0,0,1,1.016-2.4826,4.797,4.797,0,0,1,2.639-1.0767l3.098-.3737Zm-4.114,5.2224a2.27967,2.27967,0,0,0,1.455.4903,4.433,4.433,0,0,0,1.986-.4629,2.66166,2.66166,0,0,0,1.63-2.5649l.007-1.5602a3.278,3.278,0,0,1-.916.3738,7.742,7.742,0,0,1-1.098.2126l-1.174.144a4.43356,4.43356,0,0,0-1.588.4355,1.71131,1.71131,0,0,0-.909,1.6116,1.60356,1.60356,0,0,0,.607,1.327Z"></path><path class="cls-1" d="M294.959,21.4247l1.976.0102-.055,11.4975-1.976-.0103Zm.021-4.3446,1.976.0103-.01,2.2014-1.977-.0103Z"></path><path class="cls-1" d="M298.057,21.3871l1.846.0102-.007,1.6391a5.16819,5.16819,0,0,1,1.747-1.447,4.64388,4.64388,0,0,1,2.041-.4321,3.36075,3.36075,0,0,1,3.315,1.7282,6.14533,6.14533,0,0,1,.463,2.6884l-.034,7.41-1.977-.0102.035-7.2798a3.93948,3.93948,0,0,0-.306-1.7042,1.89589,1.89589,0,0,0-1.873-1.087,3.97658,3.97658,0,0,0-1.132.1337,2.90955,2.90955,0,0,0-1.407.943,2.8191,2.8191,0,0,0-.635,1.1761,7.93863,7.93863,0,0,0-.154,1.742l-.028,6.0487-1.942-.0103.055-11.5488Z"></path><path class="cls-1" d="M308.536,21.4896l1.976.0103-.055,11.4974-1.976-.0102Zm.02-4.348,1.977.0103-.011,2.2014-1.976-.0102Z"></path><path class="cls-1" d="M311.634,21.4486l1.846.0103-.007,1.639a5.16758,5.16758,0,0,1,1.746-1.447,4.65137,4.65137,0,0,1,2.042-.4321,3.35838,3.35838,0,0,1,3.314,1.7283,6.12829,6.12829,0,0,1,.464,2.6883l-.035,7.4101-1.976-.0103.034-7.2798a3.92635,3.92635,0,0,0-.305-1.7042,1.896,1.896,0,0,0-1.873-1.087,3.989,3.989,0,0,0-1.133.1337,2.9024,2.9024,0,0,0-1.406.943,2.81841,2.81841,0,0,0-.635,1.1762,7.9274,7.9274,0,0,0-.155,1.7419l-.027,6.0488-1.942-.0103.055-11.5489Z"></path><path class="cls-1" d="M328.536,21.9906a5.3329,5.3329,0,0,1,1.111,1.1041l.007-1.4573,1.791.0068-.048,10.5031a7.74188,7.74188,0,0,1-.662,3.4701q-1.215,2.3454-4.56,2.3317a5.5723,5.5723,0,0,1-3.126-.8504,3.25612,3.25612,0,0,1-1.406-2.6231l1.972.0102a2.19625,2.19625,0,0,0,.553,1.2002,3.52144,3.52144,0,0,0,4.975-.9018,8.93076,8.93076,0,0,0,.391-3.309,3.82768,3.82768,0,0,1-1.403,1.3099,4.99368,4.99368,0,0,1-5.428-.9259q-1.395-1.33725-1.383-4.4131a6.69161,6.69161,0,0,1,1.434-4.5229,4.36364,4.36364,0,0,1,3.421-1.6116A4.17082,4.17082,0,0,1,328.536,21.9906Zm.226,2.0848a2.815,2.815,0,0,0-2.24-1.0459,2.774,2.774,0,0,0-2.8,1.9066,7.5355,7.5355,0,0,0-.409,2.6815,4.75415,4.75415,0,0,0,.776,2.9729,2.53781,2.53781,0,0,0,2.117,1.0287,2.97477,2.97477,0,0,0,2.94-1.8757,6.07271,6.07271,0,0,0,.484-2.4894,4.82876,4.82876,0,0,0-.865-3.1856Z"></path><path class="cls-2" d="M144.69,3.5937a8.2017,8.2017,0,0,1,2.467,6.0316,8.18667,8.18667,0,0,1-2.584,6.1002,8.50129,8.50129,0,0,1-14.455-6.1791,8.10311,8.10311,0,0,1,2.687-6.1893,8.35013,8.35013,0,0,1,5.87-2.2837,8.21672,8.21672,0,0,1,6.012,2.5237Zm-6.018-1.0699a6.733,6.733,0,0,0-5.016,2.102,6.81746,6.81746,0,0,0-2.059,4.9241,6.8329,6.8329,0,0,0,2.045,5.0337,6.97749,6.97749,0,0,0,9.929.0343,6.89354,6.89354,0,0,0,2.083-5.0029,6.80873,6.80873,0,0,0-2.024-4.9412,6.69757,6.69757,0,0,0-4.962-2.15Zm-1.301,8.4525-.013,3.3399-2.474-.0103.044-9.4366c.587,0,1.462.0103,2.629.0171,1.166.0103,1.815.0172,1.949.0275a4.58054,4.58054,0,0,1,1.859.4937,2.37709,2.37709,0,0,1,1.249,2.2598,2.07082,2.07082,0,0,1-.672,1.7179,3.07261,3.07261,0,0,1-1.64.6275,3.22075,3.22075,0,0,1,1.338.5486,2.55908,2.55908,0,0,1,.823,2.1192v.8435a1.84124,1.84124,0,0,0,.011.2777,1.31825,1.31825,0,0,0,.061.2778l.079.264-2.357-.0103a6.72238,6.72238,0,0,1-.144-1.3064,4.32409,4.32409,0,0,0-.144-1.1556,1.15669,1.15669,0,0,0-.69-.6961,2.718,2.718,0,0,0-.844-.1543l-.542-.0377h-.522Zm.968-1.6939a2.32406,2.32406,0,0,0,1.355-.3395,1.28134,1.28134,0,0,0,.491-1.1178,1.08369,1.08369,0,0,0-.758-1.0767,4.12745,4.12745,0,0,0-1.435-.2023h-.6l-.014,2.7363Z"></path><path class="cls-1" d="M193.014,91.147l-17.269-.083-5.682-42.4026h-1.115L168.749,91.03l-8.976-.041.203-43.3015,18.198.0858,5.62,42.40269,1.177.007,6.018-42.348,18.199.0857-.202,43.3013-8.976-.041.199-42.3756-1.115-.0069L193.017,91.147Z"></path><path class="cls-1" d="M214.16,69.592q.051-11.3205,5.558-16.9223,5.50652-5.60115,15.718-5.5549,10.2105.0462,15.667,5.7024,5.44954,5.65785,5.397,16.9738-.0525,11.3205-5.559,16.925-5.502,5.601-15.718,5.555-10.215-.04649-15.666-5.702Q214.106,80.9155,214.16,69.592Zm8.91.041q-.036,7.4895,3.106,11.12,3.138,3.6315,9.082,3.662,5.94451.027,9.116-3.576,3.1755-3.606,3.208-11.089.036-7.485-3.105-11.1172-3.13952-3.63645-9.082-3.6622-5.94452-.02565-9.117,3.5765Q223.1025,62.153,223.07,69.636Z"></path><path class="cls-1" d="M257.031,48.1436l9.47.0446L276.702,90.612l1.239.007,10.537-42.3245,9.408.0445L286.79,91.589,267.785,91.5,257.031,48.147Z"></path><path class="cls-1" d="M301.581,91.654l.203-43.30139,29.586.1371-.038,7.7324-20.796-.096-.048,10.0199,18.94.089-.038,7.794-18.94-.089-.048,10.023,20.796.096-.037,7.732-29.587-.137Z"></path><path class="cls-1" d="M192.653,138.549l-17.268-.082-5.682-42.403-1.115-.007-.199,42.375-8.976-.041.202-43.301,18.199.086,5.62,42.403,1.177.007,6.018-42.349,18.199.086-.203,43.301-8.976-.041.199-42.375h-1.115Z"></path><path class="cls-1" d="M215.309,138.655l.203-43.301,29.586.137-.038,7.733-20.799-.096-.048,10.023,18.94.089-.038,7.794-18.94-.089-.048,10.023,20.799.096-.037,7.732-29.587-.137Z"></path><path class="cls-1" d="M271.387,138.916,260.939,96.492l-1.238-.006-.199,42.375-8.976-.041.202-43.301,18.384.085,10.448,42.424,1.239.007.199-42.376,8.975.041-.202,43.302Z"></path><path class="cls-1" d="M308.031,139.087l.165-35.445-13.803-.065.038-7.856,36.582.171-.038,7.856-13.803-.065-.165,35.445Z"></path><path class="cls-2" d="M160.411,43.8366,160.614.5352l15.968.0754A31.3185,31.3185,0,0,1,186.2,1.9548a15.64949,15.64949,0,0,1,6.543,3.9914,16.08425,16.08425,0,0,1,3.743,6.7619,34.20421,34.20421,0,0,1,1.163,9.6561,34.29742,34.29742,0,0,1-1.252,9.6458,16.05384,16.05384,0,0,1-3.805,6.7243,15.68284,15.68284,0,0,1-6.581,3.9296,31.3299,31.3299,0,0,1-9.631,1.255l-15.969-.0754ZM176.544,8.463l-6.996-.0343-.13,27.5898,6.996.0343a17.74147,17.74147,0,0,0,5.699-.7784,8.40312,8.40312,0,0,0,3.788-2.4552,10.30255,10.30255,0,0,0,2.093-4.3205,27.00059,27.00059,0,0,0,.679-6.3677,26.34957,26.34957,0,0,0-.621-6.3127,9.84763,9.84763,0,0,0-2.055-4.2177,8.18986,8.18986,0,0,0-3.764-2.366,19.02477,19.02477,0,0,0-5.692-.7681Z"></path><path class="cls-2" d="M202.624,44.0319,202.827.7305l29.586.1372-.038,7.7324L211.576,8.504l-.048,10.023,18.94.0892-.038,7.7941-18.94-.0892-.048,10.023,20.8.096-.038,7.7324-29.587-.1371Z"></path><path class="cls-2" d="M80.195,50.259l28.523-38.8163a68.71593,68.71593,0,0,0-6.444-3.5662Z"></path><path class="cls-2" d="M40.1165,82.046,0,95.501v7.277Z"></path><path class="cls-2" d="M76.414,48.4589,98.452,6.1552A68.02958,68.02958,0,0,0,91.57,3.7481Z"></path><path class="cls-2" d="M0,80.534l37.78-6.498L0,74.68Z"></path><path class="cls-2" d="M38.6377,78.13,0,84.775v6.317Z"></path><path class="cls-2" d="M72.4,47.2659,87.5,2.7197a68.90221,68.90221,0,0,0-7.092-1.1933Z"></path><path class="cls-2" d="M125.946,26.8426a68.939,68.939,0,0,0-4.938-5.5516L86.725,55.4576l39.224-28.615Z"></path><path class="cls-2" d="M83.657,52.6114l34.318-34.2009a67.87139,67.87139,0,0,0-5.774-4.6463L83.657,52.6079Z"></path><path class="cls-2" d="M91.371,62.391l45.633-15.3069a67.46729,67.46729,0,0,0-2.755-6.8512Z"></path><path class="cls-2" d="M89.312,58.7457l43.033-22.2371a68.27433,68.27433,0,0,0-3.912-6.3059Z"></path><path class="cls-2" d="M138.233,51.0821,92.849,66.307l46.938-8.072a67.45161,67.45161,0,0,0-1.554-7.1495Z"></path><path class="cls-2" d="M59.0907,97.171l-13.601,40.123h6.574Z"></path><path class="cls-2" d="M62.9233,99.534l-6.6118,37.76h6.5191Z"></path><path class="cls-2" d="M140.665,69.098c0-2.266-.113-4.509-.329-6.717l-41.16,7.081,41.489-.275Z"></path><path class="cls-2" d="M69.161.813l-.9127,45.8869L76.219,1.1696c-.244-.0137-.481-.0377-.724-.048V.813H69.161Z"></path><path class="cls-2" d="M89.998,73.703v.031A25.05877,25.05877,0,0,0,67.1158,96.359l-.0995,40.935H75.501v-.219a68.05933,68.05933,0,0,0,65.02-63.704Z"></path><path class="cls-2" d="M41.2694,69.794v-.041A25.06058,25.06058,0,0,0,64.0383,48.1538L64.9784.813H18.5074A18.50186,18.50186,0,0,0,0,19.3091V70.497Z"></path><path class="cls-2" d="M55.0761,95.975,33.5527,137.294h7.5176Z"></path><path class="cls-2" d="M47.8296,91.829,6.5842,132.936a18.42963,18.42963,0,0,0,8.1283,3.964Z"></path><path class="cls-2" d="M44.7691,88.973.199,121.49a18.36294,18.36294,0,0,0,3.5066,8.404L44.7691,88.969Z"></path><path class="cls-2" d="M51.2952,94.178,19.6157,137.294h9.2194Z"></path><path class="cls-2" d="M42.1752,85.691,0,107.486v8.973Z"></path></g></g></svg>