<svg xmlns="http://www.w3.org/2000/svg" width="178" height="99" viewBox="0 0 178 99" fill="none"><path d="M173.445 31.4286C174.06 32.0504 174.366 32.799 174.361 33.6745C174.356 34.5755 174.038 35.332 173.402 35.9458C172.783 36.539 172.045 36.8341 171.184 36.8309C170.295 36.8261 169.546 36.5184 168.94 35.9046C168.334 35.2908 168.032 34.539 168.037 33.646C168.041 32.7197 168.374 31.952 169.034 31.3414C169.654 30.7704 170.38 30.4881 171.212 30.4912C172.084 30.496 172.828 30.8085 173.443 31.4302L173.445 31.4286ZM171.211 31.0305C170.484 31.0273 169.864 31.2875 169.348 31.8125C168.842 32.3264 168.587 32.937 168.584 33.646C168.581 34.3804 168.834 35.0053 169.344 35.5208C169.85 36.0363 170.464 36.2964 171.185 36.2995C171.904 36.3027 172.518 36.0474 173.03 35.5335C173.541 35.0164 173.799 34.3962 173.802 33.6698C173.806 32.964 173.556 32.3517 173.051 31.8299C172.541 31.3001 171.927 31.0337 171.209 31.0305H171.211ZM170.728 34.1773L170.722 35.4208L169.804 35.4161L169.82 31.9013C170.037 31.9013 170.363 31.9045 170.796 31.9076C171.23 31.9108 171.47 31.914 171.519 31.9171C171.796 31.9393 172.027 31.9996 172.209 32.1011C172.521 32.274 172.674 32.5548 172.673 32.9418C172.673 33.2368 172.589 33.4509 172.423 33.581C172.258 33.7126 172.056 33.7903 171.815 33.8141C172.035 33.8617 172.201 33.9299 172.312 34.0187C172.518 34.1853 172.619 34.4486 172.617 34.807V35.1211C172.616 35.156 172.617 35.1893 172.622 35.2242C172.627 35.2591 172.635 35.2924 172.646 35.3273L172.676 35.4256L171.801 35.4208C171.772 35.3082 171.755 35.1464 171.747 34.9339C171.739 34.7214 171.722 34.5786 171.693 34.5041C171.647 34.3804 171.562 34.2947 171.437 34.2455C171.369 34.217 171.264 34.198 171.124 34.1884L170.923 34.1742H170.73L170.728 34.1773ZM171.087 33.5461C171.302 33.5461 171.469 33.5048 171.59 33.4192C171.711 33.3335 171.771 33.1955 171.772 33.002C171.772 32.8101 171.679 32.6769 171.491 32.6008C171.364 32.5516 171.189 32.5262 170.959 32.5246H170.736L170.731 33.5429H171.087V33.5461Z" fill="#1D1D1B"></path><path d="M48.3068 63.2415L41.8972 63.2113L39.7881 47.4233H39.3752L39.3008 63.1987L35.9687 63.1828L36.0446 47.0601L42.7991 47.0918L44.8845 62.8783H45.3212L47.5553 47.114L54.3098 47.1457L54.2338 63.2684L50.9033 63.2526L50.9776 47.4756H50.5647L48.3084 63.2399L48.3068 63.2415Z" fill="#1D1D1B"></path><path d="M56.1562 55.2157C56.1689 52.4068 56.8572 50.3068 58.2195 48.9142C59.5818 47.5231 61.5263 46.8332 64.0531 46.8459C66.5799 46.857 68.5181 47.566 69.8678 48.9697C71.2174 50.3734 71.8851 52.4797 71.8725 55.2903C71.8598 58.1009 71.1715 60.2009 69.8092 61.5919C68.4469 62.9829 66.5024 63.6728 63.9756 63.6602C61.4488 63.6475 59.5106 62.9401 58.1609 61.5364C56.8113 60.1327 56.1436 58.0263 56.1562 55.2157ZM59.4647 55.2316C59.4552 57.0905 59.8397 58.4704 60.6165 59.3713C61.3934 60.2722 62.5168 60.7274 63.9882 60.7338C65.4581 60.7401 66.5862 60.296 67.3726 59.4031C68.1574 58.5085 68.5545 57.1318 68.564 55.2744C68.5719 53.4171 68.189 52.0372 67.4106 51.1347C66.6337 50.2322 65.5103 49.7786 64.0389 49.7706C62.569 49.7643 61.4409 50.2084 60.6545 51.103C59.8697 51.9975 59.4726 53.3743 59.4631 55.2316H59.4647Z" fill="#1D1D1B"></path><path d="M72.0702 47.2296L75.5859 47.2455L79.3722 63.0399H79.831L83.7423 47.2835L87.2342 47.2994L83.1157 63.4031L76.0622 63.3698L72.0702 47.228V47.2296Z" fill="#1D1D1B"></path><path d="M88.606 63.4299L88.682 47.3071L99.6642 47.3579L99.6499 50.2367L91.9303 50.2002L91.9129 53.9307L98.9427 53.964L98.93 56.8666L91.9002 56.8333L91.8828 60.5638L99.6025 60.6003L99.5882 63.479L88.606 63.4283V63.4299Z" fill="#1D1D1B"></path><path d="M114.219 47.5579L107.809 47.5278L105.7 31.7397H105.287L105.213 47.5151L101.881 47.4992L101.957 31.3765L108.711 31.4082L110.797 47.1947H111.233L113.467 31.4304L120.222 31.4621L120.146 47.5848L116.814 47.569L116.888 31.792H116.475L114.219 47.5579Z" fill="#1D1D1B"></path><path d="M122.445 47.5959L122.521 31.4731L133.503 31.5239L133.491 34.4027L125.771 34.3662L125.753 38.0983L132.783 38.1316L132.769 41.0342L125.739 41.0009L125.722 44.7314L133.441 44.7679L133.429 47.6466L122.447 47.5959H122.445Z" fill="#1D1D1B"></path><path d="M143.076 47.6929L139.198 31.8969H138.739L138.664 47.6723L135.332 47.6564L135.408 31.5337L142.232 31.5654L146.11 47.3614H146.569L146.644 31.586L149.974 31.6019L149.898 47.7246L143.074 47.6929H143.076Z" fill="#1D1D1B"></path><path d="M156.494 47.7564L156.556 34.5584L151.433 34.5346L151.447 31.6099L165.026 31.6733L165.012 34.5981L159.888 34.5743L159.827 47.7722L156.494 47.7564Z" fill="#1D1D1B"></path><path d="M5.85422 44.9201L5.93016 28.7974L11.8588 28.8243C13.2527 28.8307 14.4425 28.9972 15.4298 29.3255C16.4156 29.6523 17.2256 30.1471 17.8585 30.8101C18.4914 31.4731 18.9534 32.3122 19.2477 33.3273C19.542 34.3424 19.6844 35.5399 19.6781 36.923C19.6718 38.3045 19.5167 39.502 19.2145 40.5139C18.9107 41.5258 18.4392 42.3601 17.8016 43.0184C17.1624 43.675 16.3491 44.1635 15.3586 44.4807C14.3697 44.798 13.1767 44.9534 11.7828 44.9471L5.85422 44.9201ZM11.8429 31.7507L9.2465 31.738L9.19904 42.0112L11.7955 42.0239C12.623 42.027 13.3271 41.9319 13.9109 41.7352C14.4932 41.5385 14.9615 41.2324 15.3175 40.82C15.6719 40.4076 15.9314 39.8715 16.0944 39.2117C16.2573 38.5519 16.3428 37.762 16.3459 36.8405C16.3507 35.919 16.2732 35.1354 16.1165 34.4899C15.9583 33.8443 15.7036 33.3209 15.3539 32.9196C15.0026 32.5184 14.5375 32.2249 13.9568 32.0378C13.3745 31.8506 12.672 31.7554 11.8445 31.7523L11.8429 31.7507Z" fill="#4341EC"></path><path d="M21.523 44.9933L21.5989 28.8706L32.5811 28.9229L32.5669 31.8017L24.8472 31.7652L24.8298 35.4973L31.8596 35.5306L31.8454 38.4332L24.8156 38.3999L24.7982 42.1304L32.5178 42.1669L32.5036 45.0457L21.5214 44.9933H21.523Z" fill="#4341EC"></path><path d="M36.7645 29.0942L37.4417 29.0974L37.4322 31.1657C37.5936 30.9627 37.7392 30.8199 37.8673 30.7374C38.0857 30.5947 38.3594 30.5249 38.6853 30.5265C39.2708 30.5297 39.6663 30.7359 39.872 31.1467C39.9843 31.3719 40.0397 31.6828 40.0365 32.0793L40.0239 34.6726L39.3277 34.6694L39.3404 32.1221C39.3404 31.8255 39.3056 31.6066 39.2312 31.4686C39.1094 31.2466 38.8784 31.134 38.5398 31.1324C38.2581 31.1324 38.0034 31.2275 37.774 31.4195C37.5445 31.613 37.429 31.9778 37.4259 32.517L37.4164 34.6615L36.7392 34.6583L36.7645 29.0942Z" fill="#1D1D1B"></path><path d="M42.9035 30.7547C43.1694 30.8911 43.3719 31.0656 43.5111 31.2797C43.6456 31.4843 43.7342 31.7222 43.7769 31.995C43.8165 32.1822 43.8339 32.4788 43.8323 32.8864L40.8989 32.8721C40.9099 33.2829 41.0033 33.6144 41.1821 33.8635C41.3593 34.1125 41.6378 34.2378 42.0127 34.2394C42.364 34.2409 42.6441 34.1252 42.8545 33.8904C42.9716 33.754 43.0554 33.597 43.1061 33.4178L43.7722 33.4209C43.7532 33.57 43.6946 33.735 43.595 33.9158C43.4953 34.0982 43.383 34.2457 43.2611 34.3615C43.0554 34.5613 42.8023 34.6962 42.5001 34.7659C42.3387 34.8056 42.1551 34.8246 41.951 34.823C41.4526 34.8215 41.0302 34.6359 40.6853 34.2679C40.3403 33.8999 40.1695 33.3876 40.1726 32.7278C40.1758 32.0791 40.353 31.5525 40.7042 31.148C41.0555 30.7452 41.5128 30.5437 42.076 30.5469C42.3608 30.5469 42.6361 30.6167 42.902 30.7531L42.9035 30.7547ZM43.1393 32.344C43.114 32.049 43.0507 31.8142 42.9526 31.6366C42.769 31.3082 42.4637 31.1433 42.0333 31.1417C41.7248 31.1417 41.4653 31.2511 41.2549 31.4764C41.0444 31.7016 40.9321 31.9855 40.9178 32.3329L43.1393 32.344Z" fill="#1D1D1B"></path><path d="M46.223 32.2554C46.3781 32.2363 46.4841 32.1713 46.5363 32.0603C46.5664 32 46.5822 31.9128 46.5822 31.7986C46.5822 31.567 46.5015 31.3973 46.3385 31.291C46.1756 31.1848 45.9398 31.1324 45.6344 31.1308C45.2816 31.1292 45.03 31.2244 44.8813 31.4147C44.7974 31.521 44.7437 31.678 44.7183 31.889L44.0854 31.8858C44.1013 31.3862 44.2627 31.0388 44.5744 30.8453C44.8845 30.6518 45.2436 30.5551 45.6534 30.5567C46.1265 30.5582 46.511 30.6518 46.8069 30.8342C47.0996 31.0166 47.2451 31.299 47.242 31.6812L47.2309 34.0096C47.2309 34.0794 47.2451 34.1365 47.2736 34.1793C47.3021 34.2221 47.3638 34.2443 47.4556 34.2443C47.4856 34.2443 47.5189 34.2428 47.5568 34.2396C47.5948 34.2364 47.6344 34.2301 47.6771 34.2237L47.6739 34.7249C47.5679 34.7551 47.4872 34.7741 47.4334 34.7804C47.3796 34.7868 47.3021 34.7916 47.2072 34.79C46.973 34.79 46.8053 34.7059 46.6993 34.5394C46.6439 34.4505 46.6059 34.3268 46.5838 34.165C46.4445 34.3459 46.2452 34.5029 45.9873 34.6345C45.7278 34.7662 45.443 34.8312 45.1313 34.8296C44.7579 34.828 44.4525 34.7123 44.2152 34.4839C43.9794 34.2555 43.8624 33.97 43.8639 33.6289C43.8655 33.2546 43.9842 32.9644 44.2184 32.7598C44.4525 32.5551 44.7595 32.4283 45.1392 32.3823L46.2199 32.2522L46.223 32.2554ZM44.788 34.0842C44.9304 34.1984 45.0997 34.2555 45.2958 34.2555C45.5348 34.2555 45.7658 34.2031 45.9889 34.0937C46.367 33.9113 46.5553 33.6131 46.5585 33.1959L46.5616 32.6503C46.4793 32.7027 46.3718 32.7471 46.242 32.782C46.1123 32.8169 45.9841 32.8406 45.8591 32.8565L45.4493 32.9073C45.2041 32.939 45.019 32.9897 44.8955 33.0595C44.6851 33.1769 44.5791 33.3641 44.5791 33.6226C44.5791 33.8177 44.6487 33.9731 44.7911 34.0873L44.788 34.0842Z" fill="#1D1D1B"></path><path d="M47.7515 29.1655L48.4287 29.1687L48.4034 34.7137L47.7262 34.7105L47.7515 29.1655Z" fill="#1D1D1B"></path><path d="M48.9476 29.5444L49.6327 29.5476L49.628 30.6753L50.272 30.6785L50.2688 31.2336L49.6248 31.2305L49.6122 33.8681C49.6122 34.0093 49.6581 34.1029 49.7546 34.1521C49.8068 34.1806 49.8954 34.1949 50.0172 34.1949C50.0504 34.1949 50.0853 34.1949 50.1232 34.1933C50.1612 34.1933 50.2055 34.1885 50.2546 34.1806L50.2514 34.7199C50.1739 34.7421 50.0932 34.758 50.0077 34.7675C49.9239 34.777 49.8321 34.7817 49.7356 34.7817C49.4191 34.7817 49.2055 34.6977 49.0932 34.5359C48.9809 34.3725 48.9255 34.1616 48.9271 33.903L48.9397 31.2273L48.3939 31.2241L48.397 30.669L48.9429 30.6722L48.9476 29.5444Z" fill="#1D1D1B"></path><path d="M50.3241 29.1577L51.0013 29.1609L50.9918 31.2292C51.1532 31.0261 51.2988 30.8834 51.427 30.8009C51.6453 30.6582 51.919 30.5884 52.245 30.59C52.8304 30.5931 53.2259 30.7993 53.4316 31.2101C53.544 31.4354 53.5993 31.7462 53.5962 32.1428L53.5835 34.736L52.8873 34.7329L52.9 32.1856C52.9 31.889 52.8652 31.6701 52.7908 31.5321C52.669 31.3101 52.438 31.1974 52.0994 31.1959C51.8178 31.1959 51.563 31.291 51.3336 31.4829C51.1042 31.6764 50.9887 32.0412 50.9855 32.5805L50.976 34.7249L50.2988 34.7218L50.3241 29.1577Z" fill="#1D1D1B"></path><path d="M37.3452 36.7929C37.2677 36.6089 37.2281 36.4313 37.2297 36.26C37.2313 35.9031 37.3531 35.6065 37.5936 35.3734C37.8341 35.1386 38.1569 35.0228 38.5588 35.0244C38.9417 35.026 39.2407 35.137 39.4543 35.3559C39.6679 35.5764 39.7755 35.8381 39.7739 36.1426C39.7723 36.4979 39.66 36.8072 39.4353 37.0737C39.304 37.2291 39.0872 37.4083 38.7803 37.6098L39.7787 38.8231C39.8467 38.6217 39.8926 38.4726 39.9195 38.3727C39.9464 38.2728 39.9733 38.1348 40.0018 37.9555L40.6457 37.9587C40.6014 38.314 40.5144 38.6534 40.3862 38.9786C40.2565 39.3037 40.1932 39.4354 40.1932 39.3719L41.1679 40.5742L40.2961 40.5694L39.7818 39.9334C39.5761 40.1571 39.3879 40.3188 39.217 40.4219C38.9179 40.6012 38.5762 40.69 38.1885 40.6884C37.6158 40.6852 37.2012 40.5282 36.9417 40.2157C36.6823 39.9033 36.5541 39.5528 36.5557 39.1626C36.5573 38.7423 36.6854 38.3917 36.9402 38.111C37.0952 37.9413 37.3863 37.7287 37.8104 37.4734C37.5794 37.2021 37.4227 36.9753 37.3452 36.7914V36.7929ZM38.9575 39.9033C39.1584 39.7764 39.3119 39.6336 39.4211 39.475L38.1822 37.9413C37.8294 38.176 37.5984 38.3568 37.4908 38.4821C37.3246 38.6693 37.2424 38.8993 37.2408 39.1721C37.2408 39.4671 37.3452 39.6939 37.5588 39.8525C37.7708 40.0127 37.9987 40.092 38.2407 40.0936C38.5176 40.0936 38.7566 40.0318 38.9575 39.9049V39.9033ZM38.9195 36.7612C39.0667 36.5915 39.141 36.4028 39.141 36.1934C39.141 36.03 39.0888 35.8889 38.9828 35.7715C38.8768 35.6525 38.7312 35.5938 38.5493 35.5923C38.2724 35.5923 38.0794 35.6827 37.9718 35.8682C37.9164 35.9634 37.8879 36.0681 37.8879 36.1807C37.8879 36.333 37.929 36.4805 38.0129 36.6216C38.0968 36.7628 38.236 36.9452 38.4306 37.1704C38.6679 37.0039 38.8293 36.8675 38.9195 36.7612Z" fill="#1D1D1B"></path><path d="M42.8909 35.4116L43.576 35.4148L43.5712 36.5425L44.2152 36.5457L44.212 37.1008L43.5681 37.0976L43.5554 39.7353C43.5554 39.8765 43.6029 39.9701 43.6978 40.0193C43.75 40.0478 43.8386 40.0621 43.9605 40.0621C43.9937 40.0621 44.0285 40.0621 44.0665 40.0605C44.1044 40.0605 44.1487 40.0557 44.1978 40.0478L44.1946 40.5871C44.1171 40.6093 44.0364 40.6251 43.951 40.6347C43.8671 40.6442 43.7753 40.6489 43.6788 40.6489C43.3624 40.6489 43.1488 40.5649 43.0364 40.4031C42.9241 40.2397 42.8687 40.0288 42.8703 39.7702L42.883 37.0945L42.3371 37.0913L42.3403 36.5362L42.8861 36.5393L42.8909 35.4116Z" fill="#1D1D1B"></path><path d="M44.2801 36.5473L44.924 36.5505L44.9209 37.2484C44.9747 37.1136 45.1044 36.9486 45.3117 36.7535C45.519 36.56 45.7563 36.4633 46.0253 36.4649C46.0379 36.4649 46.0585 36.4649 46.0886 36.468C46.1186 36.4712 46.1692 36.476 46.2436 36.4839L46.2404 37.2008C46.2009 37.1929 46.1629 37.1881 46.1297 37.185C46.0965 37.1818 46.0585 37.1802 46.0189 37.1802C45.6772 37.1786 45.4145 37.288 45.231 37.5069C45.0474 37.7258 44.9541 37.9796 44.9525 38.2667L44.9414 40.5919L44.2643 40.5887L44.2832 36.5458L44.2801 36.5473Z" fill="#1D1D1B"></path><path d="M48.3495 38.1616C48.5046 38.1426 48.6106 38.0776 48.6628 37.9665C48.6929 37.9063 48.7087 37.819 48.7087 37.7048C48.7087 37.4733 48.628 37.3035 48.465 37.1973C48.3021 37.091 48.0663 37.0387 47.7609 37.0371C47.4081 37.0355 47.1565 37.1307 47.0078 37.321C46.924 37.4273 46.8702 37.5843 46.8448 37.7952L46.212 37.7921C46.2278 37.2924 46.3892 36.9467 46.7009 36.7516C47.011 36.5581 47.3701 36.4613 47.7799 36.4629C48.253 36.4645 48.6375 36.5565 48.9334 36.7405C49.2261 36.9229 49.3716 37.2052 49.3701 37.5875L49.359 39.9159C49.359 39.9856 49.3732 40.0427 49.4017 40.0856C49.4302 40.1284 49.4919 40.1506 49.5837 40.1506C49.6137 40.1506 49.647 40.149 49.6849 40.1458C49.7229 40.1427 49.7625 40.1363 49.8052 40.13V40.6312C49.6976 40.6613 49.6169 40.6788 49.5615 40.6867C49.5061 40.6946 49.4302 40.6978 49.3353 40.6962C49.1011 40.6962 48.9334 40.6106 48.8274 40.444C48.772 40.3552 48.734 40.2315 48.7119 40.0697C48.5726 40.2505 48.3748 40.406 48.1154 40.5392C47.8559 40.6724 47.5711 40.7359 47.2594 40.7359C46.886 40.7343 46.5806 40.6185 46.3433 40.3901C46.1075 40.1617 45.9904 39.8762 45.992 39.5352C45.9936 39.1609 46.1123 38.8706 46.3464 38.666C46.5806 38.4614 46.8876 38.3361 47.2673 38.2901L48.348 38.16L48.3495 38.1616ZM46.9145 39.9904C47.0569 40.1046 47.2262 40.1617 47.4224 40.1617C47.6613 40.1617 47.8923 40.1094 48.1154 39.9999C48.4919 39.8191 48.6818 39.5193 48.685 39.1022L48.6881 38.5566C48.6059 38.6089 48.4983 38.6533 48.3685 38.6882C48.2388 38.7231 48.1106 38.7469 47.9856 38.7628L47.5758 38.8135C47.3306 38.8452 47.1455 38.896 47.022 38.9658C46.8116 39.0832 46.7056 39.2703 46.7056 39.5288C46.7056 39.7239 46.7752 39.8794 46.9176 39.9936L46.9145 39.9904Z" fill="#1D1D1B"></path><path d="M49.8527 36.5914L50.5409 36.5946L50.5219 40.6185L49.8337 40.6153L49.8527 36.5914ZM49.859 35.0703L50.5473 35.0735L50.5441 35.8427L49.8558 35.8396L49.859 35.0703Z" fill="#1D1D1B"></path><path d="M50.9333 36.5774L51.5773 36.5806L51.5741 37.1547C51.7656 36.9184 51.9697 36.7503 52.1833 36.6488C52.3969 36.5457 52.6342 36.4965 52.8953 36.4981C53.468 36.5013 53.8525 36.7027 54.0519 37.104C54.161 37.3229 54.2148 37.6369 54.2133 38.0445L54.2006 40.6378L53.5123 40.6346L53.525 38.0874C53.525 37.8399 53.4902 37.6417 53.419 37.491C53.3003 37.2388 53.082 37.1119 52.7655 37.1103C52.6041 37.1103 52.4728 37.1262 52.37 37.1579C52.1833 37.2118 52.0203 37.3229 51.8795 37.4878C51.7656 37.621 51.6912 37.7574 51.658 37.9002C51.6232 38.0429 51.6057 38.246 51.6042 38.5093L51.5947 40.6267L50.9175 40.6235L50.9365 36.5806L50.9333 36.5774Z" fill="#1D1D1B"></path><path d="M54.5883 36.6138L55.2765 36.617L55.2575 40.641L54.5693 40.6378L54.5883 36.6138ZM54.5962 35.0928L55.2844 35.0959L55.2813 35.8652L54.593 35.862L54.5962 35.0928Z" fill="#1D1D1B"></path><path d="M55.6705 36.5994L56.3145 36.6025L56.3113 37.1767C56.5027 36.9404 56.7068 36.7722 56.9204 36.6707C57.134 36.5692 57.3714 36.5185 57.6324 36.5201C58.2052 36.5232 58.5897 36.7247 58.789 37.1259C58.8982 37.3448 58.952 37.6589 58.9504 38.0665L58.9378 40.6598L58.2495 40.6566L58.2622 38.1093C58.2622 37.8619 58.2274 37.6636 58.1562 37.513C58.0375 37.2608 57.8191 37.1339 57.5027 37.1323C57.3413 37.1323 57.21 37.1482 57.1071 37.1799C56.9204 37.2338 56.7575 37.3448 56.6167 37.5098C56.5027 37.643 56.4284 37.7794 56.3951 37.9222C56.3603 38.0649 56.3429 38.2679 56.3413 38.5312L56.3319 40.6487L55.6547 40.6455L55.6736 36.6025L55.6705 36.5994Z" fill="#1D1D1B"></path><path d="M61.5674 36.7899C61.694 36.8788 61.8238 37.0072 61.9551 37.1769L61.9582 36.6678L62.5832 36.671L62.5658 40.3476C62.5642 40.8615 62.4867 41.2659 62.3348 41.5625C62.0516 42.1097 61.5216 42.3809 60.7431 42.3778C60.3096 42.3762 59.9472 42.2763 59.6529 42.0796C59.3586 41.8829 59.1957 41.5768 59.1625 41.1612L59.8507 41.1644C59.8824 41.3452 59.9457 41.4864 60.0438 41.5847C60.1956 41.737 60.4346 41.8131 60.7621 41.8147C61.2795 41.8179 61.6181 41.6355 61.7795 41.2691C61.876 41.0534 61.9203 40.6664 61.9155 40.1112C61.7795 40.3174 61.6165 40.4697 61.425 40.5696C61.2352 40.6695 60.9836 40.7187 60.6703 40.7171C60.2352 40.7155 59.8555 40.5585 59.5311 40.2461C59.2068 39.9336 59.0454 39.4197 59.0485 38.7028C59.0517 38.0255 59.2178 37.4989 59.5485 37.1198C59.8792 36.7408 60.2763 36.5536 60.7415 36.5552C61.0564 36.5552 61.3317 36.6361 61.5658 36.7931L61.5674 36.7899ZM61.6465 37.5195C61.4424 37.2769 61.183 37.1547 60.8649 37.1531C60.3903 37.1516 60.0643 37.3736 59.8887 37.8209C59.7953 38.0588 59.7479 38.3729 59.7463 38.7599C59.7447 39.2151 59.8333 39.5624 60.0169 39.8004C60.1988 40.0399 60.4456 40.1588 60.7558 40.1604C61.2399 40.162 61.5817 39.9447 61.781 39.5053C61.8918 39.2563 61.9488 38.9661 61.9503 38.6346C61.9535 38.1334 61.8522 37.7622 61.6481 37.5195H61.6465Z" fill="#1D1D1B"></path></svg>