<svg xmlns="http://www.w3.org/2000/svg" width="31" height="32" viewBox="0 0 31 32" fill="none"><path d="M11.9525 1.19641C10.4349 1.70227 9.24404 2.89312 8.73818 4.4107C8.0427 6.49712 8.0427 8.75284 8.73818 10.8393C9.24404 12.3568 10.4349 13.5477 11.9525 14.0536C14.0389 14.749 16.2946 14.749 18.381 14.0536C19.8986 13.5477 21.0895 12.3568 21.5953 10.8393C22.2908 8.75284 22.2908 6.49712 21.5953 4.4107C21.0895 2.89312 19.8986 1.70227 18.381 1.19641C16.2946 0.500936 14.0389 0.500936 11.9525 1.19641Z" fill="white"></path><path d="M0.16818 26.9182C0.166748 26.8664 0.166748 26.8069 0.166748 26.6881V25.0731C0.166748 22.4727 1.77981 20.1451 4.21465 19.232C11.276 16.584 19.0575 16.584 26.1188 19.232C28.5537 20.1451 30.1667 22.4727 30.1667 25.0731V26.6881C30.1667 26.8069 30.1667 26.8664 30.1653 26.9182C30.1152 28.7301 28.7763 30.2469 26.9845 30.5213C26.9333 30.5292 26.8744 30.5365 26.7566 30.5513C26.3308 30.6045 26.1177 30.6311 25.9055 30.6566C18.772 31.5139 11.5615 31.5139 4.42805 30.6566C4.21577 30.6311 4.00289 30.6045 3.57712 30.5513C3.45933 30.5366 3.40017 30.5292 3.34899 30.5213C1.55723 30.2469 0.218259 28.7301 0.16818 26.9182Z" fill="white"></path></svg>