<svg xmlns="http://www.w3.org/2000/svg" width="33" height="39" viewBox="0 0 33 39" fill="none"><path fill-rule="evenodd" clip-rule="evenodd" d="M24.6895 1.40112C19.2573 0.625084 13.7423 0.625084 8.31009 1.40112C4.40337 1.95922 1.33381 5.02878 0.775709 8.9355L0.464617 11.1131C-0.105068 15.1009 -0.105067 19.1495 0.464617 23.1372C1.21148 28.3653 4.33025 32.9557 8.91556 35.5759L11.8907 37.276C14.7467 38.908 18.2529 38.908 21.1089 37.276L24.084 35.5759C28.6693 32.9557 31.7881 28.3653 32.535 23.1372C33.1046 19.1495 33.1046 15.1009 32.535 11.1131L32.2239 8.9355C31.6658 5.02878 28.5962 1.95922 24.6895 1.40112ZM14.6249 20.8751H10.8749V17.1251H14.6249V13.3751H18.3749V17.1251H22.1249V20.8751H18.3749V24.6251L14.6249 24.6251V20.8751Z" fill="white"></path></svg>