<svg xmlns="http://www.w3.org/2000/svg" width="36" height="36" viewBox="0 0 36 36" fill="none"><path d="M8.5528 16.4787C7.94117 16.8864 7.17553 16.989 6.47816 16.7565C3.63292 15.8081 1.40026 13.5754 0.451844 10.7302C0.219386 10.0328 0.321918 9.26718 0.729676 8.65555L0.96135 8.30803C1.56071 7.40899 2.21448 6.55028 2.9182 5.73635L0.632597 3.45075L3.28425 0.799101L5.56985 3.0847C6.38378 2.38098 7.24249 1.72722 8.14153 1.12785L8.48904 0.89618C9.10068 0.488422 9.86631 0.38589 10.5637 0.618348C13.4089 1.56676 15.6416 3.79942 16.59 6.64466C16.8225 7.34203 16.7199 8.10767 16.3122 8.71931L16.0805 9.06682C15.4811 9.96586 14.8274 10.8246 14.1236 11.6385L24.3623 21.8771C25.3395 21.0176 26.375 20.2222 27.4627 19.4971L27.6709 19.3583C28.0101 19.1322 28.4346 19.0753 28.8213 19.2042C31.9765 20.256 34.4524 22.7319 35.5041 25.8871C35.633 26.2738 35.5762 26.6983 35.3501 27.0374L35.2113 27.2457C34.4862 28.3333 33.6908 29.3688 32.8312 30.3461L35.1592 32.6741L32.5076 35.3258L30.1796 32.9977C29.2023 33.8573 28.1668 34.6527 27.0792 35.3778L26.8709 35.5166C26.5318 35.7427 26.1073 35.7995 25.7206 35.6706C22.5654 34.6189 20.0894 32.143 19.0377 28.9878C18.9088 28.6011 18.9657 28.1766 19.1918 27.8374L19.3306 27.6292C20.0557 26.5416 20.8511 25.506 21.7106 24.5288L11.472 14.2901C10.6581 14.9939 9.79936 15.6476 8.90031 16.247L8.5528 16.4787Z" fill="white"></path></svg>