<svg xmlns="http://www.w3.org/2000/svg" width="64" height="64" viewBox="0 0 64 64" fill="none"><rect width="64" height="64" rx="21" fill="#4341EC"></rect><g clip-path="url(#clip0_322_1412)"><path d="M32.0005 43C25.9344 43 21 38.0656 21 32.0005C21 25.9353 25.9344 21 32.0005 21C38.0666 21 43.0009 25.9344 43.0009 32.0005C43.0009 38.0666 38.0666 43.0009 32.0005 43.0009V43ZM32.0005 22.3735C26.6923 22.3735 22.3735 26.6923 22.3735 32.0005C22.3735 37.3087 26.6913 41.6265 31.9995 41.6265C37.3077 41.6265 41.6255 37.3087 41.6255 32.0005C41.6255 26.6923 37.3077 22.3735 32.0005 22.3735Z" fill="white"></path><path d="M38.0118 27.1604C37.5896 26.808 36.9618 26.8637 36.6085 27.2859L30.4345 34.6735L27.2661 32.0259C26.8439 31.6735 26.2162 31.7293 25.8628 32.1515C25.5103 32.5737 25.5661 33.2014 25.9883 33.5548L29.9211 36.8413C30.1071 36.9975 30.334 37.0728 30.5591 37.0728C30.8436 37.0728 31.1273 36.951 31.3235 36.7157L38.1364 28.5637C38.4888 28.1415 38.433 27.5138 38.0108 27.1604H38.0118Z" fill="white"></path></g><defs><clipPath id="clip0_322_1412"><rect width="22" height="22.0009" fill="white" transform="translate(21 21)"></rect></clipPath></defs></svg>